<mxfile host="app.diagrams.net" modified="2024-04-11T14:40:35.365Z" agent="Mozilla/5.0 (Windows NT 10.0; Win64; x64) AppleWebKit/537.36 (KHTML, like Gecko) Chrome/123.0.0.0 Safari/537.36" etag="hKaN1Rlsej7V-7ItpWBt" version="23.1.7" type="onedrive">
  <diagram name="Page-1" id="43-ppmVsIBiAMoeN4xBZ">
    <mxGraphModel grid="1" page="1" gridSize="10" guides="1" tooltips="1" connect="1" arrows="1" fold="1" pageScale="1" pageWidth="827" pageHeight="1169" math="0" shadow="0">
      <root>
        <mxCell id="0" />
        <mxCell id="1" parent="0" />
        <mxCell id="J4xJfOmvG9OQXQXUX1BC-8" style="edgeStyle=orthogonalEdgeStyle;rounded=0;orthogonalLoop=1;jettySize=auto;html=1;exitX=1;exitY=0.5;exitDx=0;exitDy=0;entryX=0;entryY=0.5;entryDx=0;entryDy=0;" edge="1" parent="1" source="J4xJfOmvG9OQXQXUX1BC-1" target="J4xJfOmvG9OQXQXUX1BC-2">
          <mxGeometry relative="1" as="geometry" />
        </mxCell>
        <mxCell id="J4xJfOmvG9OQXQXUX1BC-9" value="&lt;font size=&quot;1&quot; face=&quot;Verdana&quot; style=&quot;&quot;&gt;&lt;b style=&quot;font-size: 20px;&quot;&gt;Vidéo&lt;/b&gt;&lt;/font&gt;" style="edgeLabel;html=1;align=center;verticalAlign=middle;resizable=0;points=[];" connectable="0" vertex="1" parent="J4xJfOmvG9OQXQXUX1BC-8">
          <mxGeometry x="-0.3218" y="3" relative="1" as="geometry">
            <mxPoint x="32" y="-17" as="offset" />
          </mxGeometry>
        </mxCell>
        <mxCell id="J4xJfOmvG9OQXQXUX1BC-1" value="&lt;font size=&quot;1&quot; style=&quot;&quot; face=&quot;Verdana&quot;&gt;&lt;b style=&quot;font-size: 20px;&quot;&gt;Caméra&lt;/b&gt;&lt;/font&gt;" style="rounded=0;whiteSpace=wrap;html=1;" vertex="1" parent="1">
          <mxGeometry x="360" y="120" width="120" height="80" as="geometry" />
        </mxCell>
        <mxCell id="-RplmpPYwiWT_febaNee-6" style="edgeStyle=orthogonalEdgeStyle;rounded=0;orthogonalLoop=1;jettySize=auto;html=1;exitX=0.5;exitY=1;exitDx=0;exitDy=0;entryX=0.5;entryY=0;entryDx=0;entryDy=0;" edge="1" parent="1" source="J4xJfOmvG9OQXQXUX1BC-2" target="J4xJfOmvG9OQXQXUX1BC-5">
          <mxGeometry relative="1" as="geometry" />
        </mxCell>
        <mxCell id="-RplmpPYwiWT_febaNee-8" value="&lt;b&gt;&lt;font style=&quot;font-size: 20px;&quot; face=&quot;Verdana&quot;&gt;Mouvements et Angles&lt;/font&gt;&lt;/b&gt;" style="edgeLabel;html=1;align=center;verticalAlign=middle;resizable=0;points=[];" vertex="1" connectable="0" parent="-RplmpPYwiWT_febaNee-6">
          <mxGeometry x="-0.02" y="-4" relative="1" as="geometry">
            <mxPoint x="-131" as="offset" />
          </mxGeometry>
        </mxCell>
        <mxCell id="J4xJfOmvG9OQXQXUX1BC-2" value="&lt;font size=&quot;1&quot; style=&quot;&quot; face=&quot;Verdana&quot;&gt;&lt;b style=&quot;font-size: 20px;&quot;&gt;Ordinateur&lt;/b&gt;&lt;/font&gt;" style="rounded=0;whiteSpace=wrap;html=1;" vertex="1" parent="1">
          <mxGeometry x="697" y="120" width="130" height="80" as="geometry" />
        </mxCell>
        <mxCell id="-RplmpPYwiWT_febaNee-9" style="edgeStyle=orthogonalEdgeStyle;rounded=0;orthogonalLoop=1;jettySize=auto;html=1;exitX=0;exitY=0.5;exitDx=0;exitDy=0;" edge="1" parent="1" source="J4xJfOmvG9OQXQXUX1BC-5" target="J4xJfOmvG9OQXQXUX1BC-14">
          <mxGeometry relative="1" as="geometry" />
        </mxCell>
        <mxCell id="-RplmpPYwiWT_febaNee-11" value="&lt;b&gt;&lt;font style=&quot;font-size: 20px;&quot; face=&quot;Verdana&quot;&gt;Angles et Vitesses&lt;/font&gt;&lt;/b&gt;" style="edgeLabel;html=1;align=center;verticalAlign=middle;resizable=0;points=[];" vertex="1" connectable="0" parent="-RplmpPYwiWT_febaNee-9">
          <mxGeometry x="-0.114" relative="1" as="geometry">
            <mxPoint x="-17" y="-20" as="offset" />
          </mxGeometry>
        </mxCell>
        <mxCell id="J4xJfOmvG9OQXQXUX1BC-5" value="&lt;font size=&quot;1&quot; style=&quot;&quot; face=&quot;Verdana&quot;&gt;&lt;b style=&quot;font-size: 20px;&quot;&gt;Arduino&lt;/b&gt;&lt;/font&gt;" style="rounded=0;whiteSpace=wrap;html=1;" vertex="1" parent="1">
          <mxGeometry x="697" y="340" width="130" height="80" as="geometry" />
        </mxCell>
        <mxCell id="-RplmpPYwiWT_febaNee-10" style="edgeStyle=orthogonalEdgeStyle;rounded=0;orthogonalLoop=1;jettySize=auto;html=1;exitX=0;exitY=0.5;exitDx=0;exitDy=0;entryX=1;entryY=0.5;entryDx=0;entryDy=0;" edge="1" parent="1" source="J4xJfOmvG9OQXQXUX1BC-14" target="J4xJfOmvG9OQXQXUX1BC-15">
          <mxGeometry relative="1" as="geometry" />
        </mxCell>
        <mxCell id="-RplmpPYwiWT_febaNee-12" value="&lt;b style=&quot;border-color: var(--border-color);&quot;&gt;&lt;font style=&quot;border-color: var(--border-color); font-size: 20px;&quot; face=&quot;Verdana&quot;&gt;Mouvements&lt;/font&gt;&lt;/b&gt;" style="edgeLabel;html=1;align=center;verticalAlign=middle;resizable=0;points=[];" vertex="1" connectable="0" parent="-RplmpPYwiWT_febaNee-10">
          <mxGeometry x="0.3009" y="-1" relative="1" as="geometry">
            <mxPoint x="30" y="-19" as="offset" />
          </mxGeometry>
        </mxCell>
        <mxCell id="J4xJfOmvG9OQXQXUX1BC-14" value="&lt;font size=&quot;1&quot; face=&quot;Verdana&quot; style=&quot;&quot;&gt;&lt;b style=&quot;font-size: 20px;&quot;&gt;Moteurs :&lt;br&gt;Épaule 1&lt;br&gt;Épaule 2&lt;br&gt;Coude&lt;br&gt;Main&lt;br&gt;&lt;/b&gt;&lt;/font&gt;" style="rounded=0;whiteSpace=wrap;html=1;" vertex="1" parent="1">
          <mxGeometry x="360" y="320" width="120" height="120" as="geometry" />
        </mxCell>
        <mxCell id="J4xJfOmvG9OQXQXUX1BC-15" value="&lt;font style=&quot;&quot; face=&quot;Verdana&quot;&gt;&lt;b style=&quot;&quot;&gt;&lt;font style=&quot;font-size: 20px;&quot;&gt;Robot&lt;/font&gt;&lt;br&gt;&lt;/b&gt;&lt;/font&gt;" style="rounded=0;whiteSpace=wrap;html=1;" vertex="1" parent="1">
          <mxGeometry x="10" y="340" width="120" height="80" as="geometry" />
        </mxCell>
        <mxCell id="-RplmpPYwiWT_febaNee-2" style="edgeStyle=orthogonalEdgeStyle;rounded=0;orthogonalLoop=1;jettySize=auto;html=1;exitX=1;exitY=0.5;exitDx=0;exitDy=0;entryX=0;entryY=0.5;entryDx=0;entryDy=0;" edge="1" parent="1" source="-RplmpPYwiWT_febaNee-1" target="J4xJfOmvG9OQXQXUX1BC-1">
          <mxGeometry relative="1" as="geometry" />
        </mxCell>
        <mxCell id="-RplmpPYwiWT_febaNee-3" value="&lt;font size=&quot;1&quot; face=&quot;Verdana&quot; style=&quot;&quot;&gt;&lt;b style=&quot;font-size: 20px;&quot;&gt;Mouvements&lt;/b&gt;&lt;/font&gt;" style="edgeLabel;html=1;align=center;verticalAlign=middle;resizable=0;points=[];" vertex="1" connectable="0" parent="-RplmpPYwiWT_febaNee-2">
          <mxGeometry x="-0.0057" y="1" relative="1" as="geometry">
            <mxPoint x="4" y="-19" as="offset" />
          </mxGeometry>
        </mxCell>
        <mxCell id="-RplmpPYwiWT_febaNee-1" value="&lt;b&gt;&lt;font style=&quot;font-size: 20px;&quot; face=&quot;Verdana&quot;&gt;Humain&lt;/font&gt;&lt;/b&gt;" style="rounded=0;whiteSpace=wrap;html=1;" vertex="1" parent="1">
          <mxGeometry x="10" y="120" width="120" height="80" as="geometry" />
        </mxCell>
      </root>
    </mxGraphModel>
  </diagram>
</mxfile>
